<svg xmlns="http://www.w3.org/2000/svg" width="3em" height="3em" viewBox="0 0 24 24"><g fill="none" fill-rule="evenodd"><path d="m12.593 23.258l-.011.002l-.071.035l-.02.004l-.014-.004l-.071-.035c-.01-.004-.019-.001-.024.005l-.004.01l-.017.428l.005.02l.01.013l.104.074l.015.004l.012-.004l.104-.074l.012-.016l.004-.017l-.017-.427c-.002-.01-.009-.017-.017-.018m.265-.113l-.013.002l-.185.093l-.01.01l-.003.011l.018.43l.005.012l.008.007l.201.093c.012.004.023 0 .029-.008l.004-.014l-.034-.614c-.003-.012-.01-.02-.02-.022m-.715.002a.023.023 0 0 0-.027.006l-.006.014l-.034.614c0 .012.007.02.017.024l.015-.002l.201-.093l.01-.008l.004-.011l.017-.43l-.003-.012l-.01-.01z"/><path fill="#666" d="M17.42 3a2 2 0 0 1 1.649.868l.087.14L22.49 9.84a2 2 0 0 1-.208 2.283l-.114.123l-9.283 9.283a1.25 1.25 0 0 1-1.666.091l-.102-.09l-9.283-9.284a2 2 0 0 1-.4-2.257l.078-.15l3.333-5.832a2 2 0 0 1 1.572-1.001L6.58 3zM7.293 9.293a1 1 0 0 0 0 1.414l3.823 3.823a1.25 1.25 0 0 0 1.768 0l3.823-3.823a1 1 0 1 0-1.414-1.414L12 12.586L8.707 9.293a1 1 0 0 0-1.414 0"/></g></svg>